<svg xmlns="http://www.w3.org/2000/svg" viewBox="0 0 1059.22 1059.23"><defs><style>.cls-1,.cls-2{fill:#d02030;}.cls-2{stroke:#000;stroke-miterlimit:10;stroke-width:7px;}.cls-3{fill:#ee2935;}</style></defs><g id="Layer_2" data-name="Layer 2"><g id="Layer_1-2" data-name="Layer 1"><path d="M529.56,0c7.25,0,14.5.09,21.74.55,2.09.14,4.18.19,6.28.26,3.54.12,7.08.24,10.61.68.95.12,1.92.17,2.89.22,3,.15,6.11.33,9.14.78,1.12.17,2.25.18,3.37.29,1.61.16,3.21.34,4.81.51,1.28.15,2.56.29,3.84.45,1.59.19,3.19.42,4.79.6,3.2.36,6.39.83,9.57,1.29,3.51.5,7,1.06,10.5,1.64,4.13.69,8.24,1.45,12.36,2.2,5.39,1,10.75,2.1,16.08,3.3Q659.91,16,674.08,20a527.37,527.37,0,0,1,189.75,98.83A529.24,529.24,0,0,1,993.52,274a520.34,520.34,0,0,1,45.79,111.45c3.31,11.79,6.25,23.66,8.72,35.65q2.1,10.17,3.85,20.41c.9,5.23,1.63,10.5,2.43,15.75.56,3.66.8,7.37,1.35,11,.67,4.47.8,9,1.43,13.45a7.81,7.81,0,0,1,.1,1c.31,6.28,1.08,12.52,1.27,18.81.11,3.87.35,7.73.49,11.59.11,2.9.22,5.8.24,8.7,0,5.48,0,10.95,0,16.43,0,3.22-.2,6.44-.32,9.66-.14,3.54-.3,7.09-.44,10.63-.11,2.9-.24,5.79-.57,8.68-.15,1.28-.22,2.57-.29,3.85-.17,2.9-.33,5.79-.75,8.67-.16,1.11-.19,2.25-.3,3.37-.17,1.76-.37,3.52-.56,5.28-.09.8-.22,1.6-.29,2.4-.44,4.65-1.16,9.27-1.77,13.9-.67,5.11-1.55,10.19-2.35,15.28-.6,3.81-1.3,7.62-2.08,11.4-1.41,6.78-2.82,13.55-4.41,20.29A526.77,526.77,0,0,1,948.8,853.29,529.39,529.39,0,0,1,671.45,1040c-10.54,2.94-21.19,5.5-31.89,7.78-6.61,1.41-13.26,2.7-19.92,3.8-5.09.84-10.16,1.78-15.28,2.32-3.48.73-7,.83-10.53,1.45-1.11.2-2.24.25-3.36.37l-4.33.48c-.32,0-.63.12-.95.14-5,.29-9.93,1.05-14.92,1.31-2.42.12-4.82.34-7.24.5s-4.82.32-7.23.41q-8.22.3-16.43.53-10.64.32-21.26,0c-3.71-.13-7.41-.26-11.12-.37-4.35-.12-8.69-.25-13-.72-1.6-.18-3.22-.22-4.83-.3-2.25-.11-4.5-.26-6.74-.57-1.27-.17-2.56-.27-3.85-.35-2.09-.14-4.17-.3-6.24-.64-1.12-.18-2.25-.23-3.37-.36l-4.79-.59c-.64-.08-1.28-.2-1.92-.26-4.33-.43-8.62-1.1-12.91-1.8-3-.49-6.06-.87-9.07-1.38-3.81-.64-7.63-1.28-11.41-2.07-5.35-1.12-10.72-2.21-16.06-3.4q-14.38-3.2-28.54-7.24A530.94,530.94,0,0,1,31,708.28,514.5,514.5,0,0,1,14,650.87q-3-12.72-5.35-25.53C7.8,620.59,7,615.83,6.32,611c-.42-3.19-1-6.36-1.44-9.55-.5-3.67-.9-7.35-1.34-11-.17-1.44-.34-2.88-.5-4.32-.13-1.12-.25-2.24-.36-3.37-.24-2.4-.46-4.81-.69-7.21,0-.32-.08-.64-.09-1C1.58,567.84.8,561.11.64,554.34c-.11-4.51-.31-9-.46-13.53q-.36-11.35,0-22.71c.13-3.87.28-7.73.41-11.6.14-4.35.25-8.69.73-13,.16-1.44.2-2.9.28-4.35.12-2.41.25-4.82.61-7.22a14.06,14.06,0,0,0,.15-1.44c.2-4.51.91-9,1.34-13.46.35-3.53.91-7,1.4-10.54q.59-4.31,1.24-8.6c.82-5.26,1.74-10.49,2.69-15.71,1.22-6.66,2.62-13.27,4.09-19.87q4.62-20.76,11-41A531.19,531.19,0,0,1,275.34,65a520.39,520.39,0,0,1,103.2-43c15.33-4.53,24.26-6.71,35.51-9.25,7.22-1.63,14.48-3,21.78-4.34,4.75-.84,9.53-1.57,14.29-2.4,3.17-.56,6.39-.81,9.57-1.31,4-.61,8-.88,12-1.48,1-.14,1.92-.24,2.89-.3,2.41-.16,4.82-.35,7.21-.72a3.93,3.93,0,0,1,.48-.06c6-.26,11.88-1,17.84-1.23,4-.14,8.05-.33,12.07-.53C518,0,523.76,0,529.56,0Zm521.56,532.45c-.07-11.26-.23-20.29-.61-29.3-.23-5.31-.67-10.61-1-15.92,0-.32-.06-.64-.09-1-.24-2.57-.47-5.13-.71-7.7-.09-1-.14-1.93-.29-2.89-.62-4-.7-8-1.45-12-.54-5.61-1.44-11.18-2.33-16.74-1-6.36-2.17-12.7-3.41-19-1.59-8.06-3.34-16.08-5.33-24.05a521.94,521.94,0,0,0-373-378.59q-17-4.53-34.37-7.81c-6.48-1.24-13-2.4-19.52-3.33-4.62-.65-9.22-1.43-13.87-1.89-.48,0-1-.15-1.44-.21l-4.79-.58c-1.12-.12-2.26-.17-3.37-.35a62.22,62.22,0,0,0-6.24-.64c-1.13-.07-2.26-.12-3.38-.28-3-.44-6.09-.59-9.15-.73-1.28-.06-2.57-.12-3.85-.25-4-.43-8-.56-12.07-.66l-11.6-.29q-9.42-.23-18.85,0-7.24.17-14.49.37c-2.1.06-4.2.09-6.28.3-6.09.6-12.23.6-18.3,1.44-1,.13-1.93.13-2.9.2a24,24,0,0,0-2.4.21c-4,.72-8,.66-12,1.48-4.65.46-9.26,1.21-13.88,1.9-5.73.87-11.43,1.88-17.14,2.91q-10.46,1.89-20.8,4.3-19,4.44-37.74,10.22A515.51,515.51,0,0,0,262.76,81.5,523.2,523.2,0,0,0,39.94,349.92,508.61,508.61,0,0,0,15,445.08c-.64,2.51-.8,5.09-1.21,7.64-.51,3.18-1,6.36-1.37,9.56-.41,4-1.13,8-1.34,12,0,.48-.12,1-.17,1.44-.21,2.08-.42,4.16-.61,6.25-.1,1.12-.12,2.25-.27,3.37-.46,3.36-.59,6.74-.76,10.12-.09,1.77-.23,3.54-.34,5.3-.15,2.58-.34,5.15-.41,7.73q-.63,20.78,0,41.56c.19,6.77.86,13.51,1.15,20.27.68,4.95.71,10,1.46,14.91.27,1.75.29,3.53.51,5.29.47,3.67,1.05,7.33,1.47,11,.61,5.29,1.52,10.52,2.38,15.76,1.09,6.68,2.36,13.32,3.76,19.94,2.78,13.08,6,26,9.75,38.87A522.82,522.82,0,0,0,345.1,1017.52a505.67,505.67,0,0,0,53.82,17.06c7,1.79,14.06,3.47,21.14,5,6.46,1.37,12.93,2.65,19.44,3.77,2.22.39,4.45.74,6.67,1.11q5.71.94,11.46,1.73c3,.41,6.07.75,9.1,1.17,2.24.31,4.47.58,6.73.74.8.06,1.6.13,2.4.27a63.32,63.32,0,0,0,6.73.65c1,0,1.93.09,2.89.22,3.68.5,7.38.65,11.08.81,1.29,0,2.58.12,3.86.24,4,.38,8,.5,12.07.59q16.92.35,33.83,0c4.19-.08,8.38-.21,12.56-.59,1.92-.18,3.85-.26,5.79-.33,5.48-.18,10.9-1,16.38-1.27.32,0,.63-.09,1-.12l5.76-.62c1-.1,1.93-.15,2.88-.32,3.65-.63,7.36-.81,11-1.45,3.17-.55,6.39-.8,9.56-1.37,4.6-.81,9.2-1.56,13.8-2.4q10.69-1.94,21.28-4.37,19.07-4.38,37.75-10.17a510.48,510.48,0,0,0,87.37-36.06,523.47,523.47,0,0,0,245.11-275,511.28,511.28,0,0,0,18.8-59.36q3-11.71,5.38-23.54c1.11-5.36,2.13-10.74,3-16.14s1.71-10.49,2.4-15.76c.64-5,1.37-9.89,1.82-14.87.06-.64.12-1.28.23-1.92a62.1,62.1,0,0,0,.63-6.25c.06-1,.1-1.93.23-2.89.48-3.35.63-6.73.8-10.11.09-1.61.23-3.21.34-4.82.13-1.93.32-3.86.37-5.79C1050.78,547,1051,538.59,1051.12,532.45Z"/><path class="cls-1" d="M529.57,380.76H191.26c-3,0-6.11,0-9.17.25a31.3,31.3,0,0,1-6.27-.06,1,1,0,0,1-.78-1.44c.35-.9.68-1.81,1.07-2.69,2.19-5,4.45-10,6.85-14.92A386.58,386.58,0,0,1,378.33,175.47,376.35,376.35,0,0,1,435,156.33c8.12-2,16.29-3.85,24.52-5.38,4.9-.91,9.81-1.83,14.78-2.35,3.47-.78,7-.81,10.52-1.47.95-.18,1.93-.17,2.89-.28,5.28-.58,10.58-1,15.88-1.37,3.05-.23,6.1-.45,9.16-.54q16.92-.51,33.83,0c3.06.1,6.12.2,9.16.56a14,14,0,0,0,1.45.13c5.16.14,10.26.92,15.4,1.31,1,.07,1.92.21,2.88.34s1.91.32,2.87.41c2.08.18,4.15.47,6.22.83s4.14.57,6.21.92c4,.67,7.93,1.38,11.89,2.1,6.65,1.2,13.25,2.67,19.81,4.31A386,386,0,0,1,862,335.1a372.66,372.66,0,0,1,21,41.32c.44,1,.83,2.09,1.24,3.14a1.12,1.12,0,0,1-.88,1.4l-.48.06a51.45,51.45,0,0,1-7.24-.13,27.93,27.93,0,0,0-2.89-.12c-1.78,0-3.55,0-5.32,0Z"/><path class="cls-1" d="M884.21,379.56a1.12,1.12,0,0,1-.88,1.4l-.48.06a51.45,51.45,0,0,1-7.24-.13,27.93,27.93,0,0,0-2.89-.12c-1.78,0-3.55,0-5.32,0H191.26c-3,0-6.11,0-9.17.25a31.3,31.3,0,0,1-6.27-.06"/><path class="cls-2" d="M175.82,381a1,1,0,0,1-.78-1.44c.35-.9.68-1.81,1.07-2.69,2.19-5,4.45-10,6.85-14.92A386.58,386.58,0,0,1,378.33,175.47,376.35,376.35,0,0,1,435,156.33c8.12-2,16.29-3.85,24.52-5.38,4.9-.91,9.81-1.83,14.78-2.35,3.47-.78,7-.81,10.52-1.47.95-.18,1.93-.17,2.89-.28,5.28-.58,10.58-1,15.88-1.37,3.05-.23,6.1-.45,9.16-.54q16.92-.51,33.83,0c3.06.1,6.12.2,9.16.56a14,14,0,0,0,1.45.13c5.16.14,10.26.92,15.4,1.31,1,.07,1.92.21,2.88.34s1.91.32,2.87.41c2.08.18,4.15.47,6.22.83s4.14.57,6.21.92c4,.67,7.93,1.38,11.89,2.1,6.65,1.2,13.25,2.67,19.81,4.31A386,386,0,0,1,862,335.1a372.66,372.66,0,0,1,21,41.32c.44,1,.83,2.09,1.24,3.14"/><path class="cls-2" d="M884.25,679.54c-.22.6-.41,1.22-.67,1.8-1.76,4-3.47,8-5.32,11.91A386.51,386.51,0,0,1,662.68,891a371,371,0,0,1-43.43,13.1c-6.89,1.63-13.82,3.11-20.78,4.38-4.91.9-9.82,1.81-14.8,2.31-3.62.79-7.36.81-11,1.48-.94.17-1.92.19-2.88.28l-5.77.56c-.8.08-1.6.2-2.41.25-9.48.54-19,1.33-28.48,1.2-5.15-.06-10.31-.05-15.47-.11-3.54,0-7.08-.19-10.61-.53-1.61-.15-3.22-.23-4.83-.31a81.1,81.1,0,0,1-8.66-.72c-.8-.12-1.6-.17-2.41-.22a56.12,56.12,0,0,1-6.72-.73,17.65,17.65,0,0,0-1.92-.23c-2.09-.16-4.16-.45-6.23-.81s-4.14-.55-6.21-.89c-4.13-.67-8.25-1.39-12.37-2.13-5.39-1-10.75-2.12-16.07-3.37a378.93,378.93,0,0,1-39.38-11.46,386.2,386.2,0,0,1-220.1-197.46c-2.36-4.94-4.66-9.91-6.76-15-.18-.44-.3-.91-.44-1.37"/><path class="cls-3" d="M103.57,595.12H43.65c-2.73,0-5.47,0-8.21,0a13.83,13.83,0,0,1-1.92-.17,3.26,3.26,0,0,1-2.5-2.63c-.05-.64-.1-1.29-.11-1.93q-.09-8.46-.15-16.91c0-1,0-1.93,0-2.9a11.07,11.07,0,0,1,2.16-6.29,15.94,15.94,0,0,1,2.57-2.87c1.08-1,2.2-1.89,3.31-2.82q24.3-20.26,48.61-40.52,12.79-10.69,25.53-21.45c1.1-.93,2.2-1.88,3.26-2.87a6.16,6.16,0,0,0,.86-1.15c.29-.41.08-1.53-.54-1.58s-1.26-.27-1.9-.29c-1.77,0-3.54,0-5.31,0q-34.78,0-69.58.09c-1.93,0-3.86,0-5.79-.16a3,3,0,0,1-2.34-1.52,4.71,4.71,0,0,1-.54-1.33,6.2,6.2,0,0,1-.14-1.43q0-8.46,0-16.91a4.31,4.31,0,0,1,.7-2.28,3,3,0,0,1,1-1,5.63,5.63,0,0,1,2.73-.86c1,0,1.93,0,2.9,0H168.78c1.61,0,3.22,0,4.83,0a10.13,10.13,0,0,1,1.9.28,3.46,3.46,0,0,1,2.66,3.07,14.11,14.11,0,0,1,.09,1.45q0,7.72-.11,15.46a36.41,36.41,0,0,1-.66,6.24,10.09,10.09,0,0,1-1,2.71,15.75,15.75,0,0,1-2.8,3.92,49.47,49.47,0,0,1-4.27,3.91q-11.34,9.42-22.65,18.86-24.87,20.7-49.74,41.43c-1.36,1.13-2.68,2.31-4,3.5a16.07,16.07,0,0,0-1.27,1.45,1.49,1.49,0,0,0,0,1.36,1.06,1.06,0,0,0,.75.53,9.79,9.79,0,0,0,1.43.17c1.61,0,3.22,0,4.83,0h70.06q2.66,0,5.31.06a6.82,6.82,0,0,1,1.42.25,3.57,3.57,0,0,1,2.48,2.7,15.68,15.68,0,0,1,.15,1.93q0,7.49,0,15a8.68,8.68,0,0,1-.42,2.85,3.13,3.13,0,0,1-1.86,2.07,7.28,7.28,0,0,1-2.34.56q-2.42.06-4.83.06H103.57Z"/><path class="cls-3" d="M370.35,530.15V474.09c0-1.29,0-2.58,0-3.87a9.75,9.75,0,0,1,.14-1.43,4.31,4.31,0,0,1,3.6-3.42c.8-.08,1.61-.11,2.41-.11,3.55,0,7.09.05,10.64.05,6.44,0,12.88-.05,19.33-.06a31.54,31.54,0,0,1,3.37.13,3.81,3.81,0,0,1,2.47,1.39,3.19,3.19,0,0,1,.8,1.73c.08.8.13,1.6.13,2.41q0,11.11,0,22.23c0,.8,0,1.61,0,2.41a4.14,4.14,0,0,0,4.15,4.4c1.29.05,2.58.06,3.87.06,4.83,0,9.66-.05,14.5-.05h48.32c1.13,0,2.26,0,3.39,0a36.3,36.3,0,0,1,12.67,2.67c9.73,4.07,15.83,11.3,18.6,21.42a29.88,29.88,0,0,1,1.06,7.63c0,1.62,0,3.23,0,4.84q0,19.32,0,38.66,0,6.52,0,13a18.45,18.45,0,0,1-.28,3.85,3.12,3.12,0,0,1-1.3,2,5.48,5.48,0,0,1-2.66,1c-.64.06-1.29.06-1.94.06H484.31c-1,0-1.93,0-2.89-.06a5.32,5.32,0,0,1-2.72-.91,2.2,2.2,0,0,1-1.07-1.52,17.81,17.81,0,0,1-.27-2.4c-.06-1.45-.05-2.9-.06-4.35l-.09-52.68c0-1.77,0-3.54,0-5.31a23.87,23.87,0,0,0-.61-5.27,7.35,7.35,0,0,0-5.94-5.65,30.32,30.32,0,0,0-5.3-.33l-13.05,0q-12.33,0-24.65,0c-2.41,0-4.83-.07-7.24-.13a15.64,15.64,0,0,0-4.32.39,3.59,3.59,0,0,0-2.59,2.61,5.37,5.37,0,0,0-.25,1.43q-.06,2.18-.06,4.35,0,30.68,0,61.37c0,1.45,0,2.9-.06,4.35a5.14,5.14,0,0,1-.12,1,3.28,3.28,0,0,1-2,2.53,8.65,8.65,0,0,1-1.86.49,21.56,21.56,0,0,1-2.41.08H375.85c-.65,0-1.29,0-1.93-.1a4.08,4.08,0,0,1-3.35-3.06,8.64,8.64,0,0,1-.2-1.43c0-1,0-1.93,0-2.9V530.15Z"/><path class="cls-3" d="M730.44,499.81l18.84.24c2.9,0,5.79.18,8.69.39,3.37.25,6.75.34,10.13.45a55.75,55.75,0,0,1,8.66.67,7,7,0,0,0,1.44.16,46.17,46.17,0,0,1,9.07,1.25,61.28,61.28,0,0,1,16.42,5.48,26.17,26.17,0,0,1,7,5,20,20,0,0,1,4.84,8.26,20.82,20.82,0,0,1,1,6.16c0,1.61,0,3.22,0,4.83q0,16.18,0,32.37c0,1,0,1.93,0,2.9a19,19,0,0,1-5.31,12.62,27.34,27.34,0,0,1-6.48,5,51.43,51.43,0,0,1-11.55,4.8c-2.82.82-6.52,1.49-9.9,2.11a58,58,0,0,1-7.65,1,65.73,65.73,0,0,1-10.57,1c-.8,0-1.61.08-2.41.2a66,66,0,0,1-9.63.56q-11.6,0-23.19-.07c-1.77,0-3.55-.11-5.3-.29-3.05-.31-6.11-.45-9.17-.53a49.26,49.26,0,0,1-8.65-.71,11.26,11.26,0,0,0-1.92-.19,50.08,50.08,0,0,1-9-1.44,53,53,0,0,1-8.78-2.6,50.19,50.19,0,0,1-10.28-5.28,22.45,22.45,0,0,1-8-9.45,18.52,18.52,0,0,1-1.81-7.45c0-1,0-1.93,0-2.9a24.86,24.86,0,0,1,2.78-10.65,22,22,0,0,1,8.46-9,35.42,35.42,0,0,1,6.59-3,85.77,85.77,0,0,1,11.62-3.18c2.61-.87,5.4-.86,8-1.56a15.61,15.61,0,0,1,2.39-.25c1.13-.1,2.26-.12,3.37-.33a47.13,47.13,0,0,1,7.69-.64q12.79-.39,25.6-.33c6.92,0,13.85,0,20.77,0,1.45,0,2.9,0,4.35-.07a10.38,10.38,0,0,0,3.31-.62,2.47,2.47,0,0,0,1.5-1.77,5.1,5.1,0,0,0,.16-.95,28.74,28.74,0,0,0-.16-4.82,9.19,9.19,0,0,0-1.5-4,8.26,8.26,0,0,0-4.2-3.1,16.67,16.67,0,0,0-2.32-.67c-2.19-.49-4.4-.94-6.6-1.39q-1.42-.3-2.85-.51c-1.11-.17-2.23-.37-3.35-.43-2.09-.1-4.18-.15-6.28-.17-15.45-.22-30.91-.17-46.37-.12q-6,0-12.08,0a15.41,15.41,0,0,1-2.88-.24c-1.86-.37-2.54-.81-2.74-2.8a35.48,35.48,0,0,1,.26-10.59,3.12,3.12,0,0,1,1.73-2.18,6.24,6.24,0,0,1,2.76-.82c1.61-.05,3.22-.11,4.83-.11h28.5c1.93,0,3.86,0,5.79-.15,1.44-.12,2.9,0,4.34,0Zm13.21,79.85v-.09c1.93-.07,3.86-.15,5.79-.21s3.86-.08,5.79-.16a18.74,18.74,0,0,0,3.36-.29,60.55,60.55,0,0,0,9.24-2.75,10.2,10.2,0,0,0,1.7-.89,8.33,8.33,0,0,0,4-6.31,15.5,15.5,0,0,0,.11-1.93c0-3.7,0-7.4,0-11.1a8.68,8.68,0,0,0-.15-1.44,3,3,0,0,0-1.28-2,3.46,3.46,0,0,0-1.79-.66c-1.12-.06-2.25-.08-3.38-.08H754c-1,0-1.92-.09-2.89-.14a8.77,8.77,0,0,0-4.74-.2c-1.59.21-3.21.22-4.82.34s-3.54.18-5.29.43c-1.91.28-3.83.42-5.76.54a29.06,29.06,0,0,0-3.84.4,38.52,38.52,0,0,1-4.78.59,17.39,17.39,0,0,0-5.14,1.28,8.61,8.61,0,0,0-5.6,7.27,22.73,22.73,0,0,0,.08,6.74,8.68,8.68,0,0,0,4.09,6.26,18.78,18.78,0,0,0,2.15,1.08,25.43,25.43,0,0,0,6,1.71A54.8,54.8,0,0,0,734,579.36c1.45,0,2.89.15,4.34.19C740.11,579.61,741.88,579.62,743.65,579.66Z"/><path class="cls-3" d="M257.47,499.81l20.29.24c3.06,0,6.12.16,9.17.42,2.89.24,5.79.31,8.69.41a53.43,53.43,0,0,1,8.66.7,5.13,5.13,0,0,0,1,.1A53.06,53.06,0,0,1,314.8,503a55.49,55.49,0,0,1,16.8,5.8,38,38,0,0,1,3.7,2.29,20.86,20.86,0,0,1,8.19,12.16,11.35,11.35,0,0,1,.23,1.42,52.58,52.58,0,0,1,.46,6.27c0,4,0,8.05,0,12.08,0,6.28-.14,12.56.07,18.84a57.43,57.43,0,0,1-.47,8.19,20.32,20.32,0,0,1-1.73,6,17.26,17.26,0,0,1-5,6.4,29.28,29.28,0,0,1-4.84,3.18,71.38,71.38,0,0,1-14.31,5.72c-2.62.75-5.32,1.23-8,1.8-1.26.28-2.58.19-3.84.47a57,57,0,0,1-9.12.84c-10.14.53-20.29.49-30.43.16-5.48-.18-11-.23-16.43-.35-2.26-.05-4.5-.19-6.75-.38-2.89-.25-5.79-.48-8.68-.44a69.7,69.7,0,0,1-14.75-2.31,63.74,63.74,0,0,1-14.2-6c-.84-.48-1.64-1-2.43-1.57a19.55,19.55,0,0,1-7.58-10.33,26,26,0,0,1-1.31-7.1c0-1,0-1.93,0-2.9a18.11,18.11,0,0,1,2.06-8.37,24.91,24.91,0,0,1,14-12.6,88.42,88.42,0,0,1,13-3.7c1.42-.27,2.82-.68,4.25-.86s2.86-.49,4.28-.76a23.79,23.79,0,0,1,2.4-.25c1.12-.11,2.26-.11,3.36-.33a46.23,46.23,0,0,1,7.69-.65c7.89-.27,15.78-.34,23.68-.27,7.25.07,14.5.11,21.74-.11a27.64,27.64,0,0,1,3.86.17,19.41,19.41,0,0,0,2.41.08,4,4,0,0,0,3.33-2.44,16.24,16.24,0,0,0,.75-3.78,9.86,9.86,0,0,0-.38-2.86,8.41,8.41,0,0,0-5.85-6.48c-.91-.32-1.85-.57-2.78-.81-3-.76-6-1.35-8.95-2a13.59,13.59,0,0,0-1.92-.21c-1-.07-1.93-.13-2.89-.14-11.12-.11-22.23-.43-33.34-.33q-13.53.12-27.06.22-2.18,0-4.35,0a6.28,6.28,0,0,1-2.78-.72,1.94,1.94,0,0,1-1.1-1.48,8.62,8.62,0,0,1-.19-1.43c0-2.74,0-5.48,0-8.21a8.78,8.78,0,0,1,.26-1.91,3,3,0,0,1,1.41-1.9,6.36,6.36,0,0,1,2.71-.94c1-.08,1.93-.13,2.9-.14,3.06,0,6.12,0,9.18,0q9.18,0,18.36,0c3.06,0,6.12.09,9.18-.18,1.28-.11,2.57,0,3.86,0Zm43.63,60.34c0-1,0-2.47,0-3.92a11.4,11.4,0,0,0-.31-1.9,3.29,3.29,0,0,0-2.71-2.41,27.63,27.63,0,0,0-2.88-.14c-4.67,0-9.33,0-14,0a11,11,0,0,1-2.87-.22,7.48,7.48,0,0,0-3.32-.19,48.39,48.39,0,0,1-5.77.44,48,48,0,0,0-4.8.41c-1.91.29-3.83.43-5.76.54-1.44.09-2.89.15-4.31.38a40.68,40.68,0,0,1-5.27.6A16.75,16.75,0,0,0,244,555a8.56,8.56,0,0,0-2.46,1.5,7.32,7.32,0,0,0-2.36,3.56,24.37,24.37,0,0,0-.77,9.07,7.34,7.34,0,0,0,2.25,4.68,9.38,9.38,0,0,0,2.78,1.89,22.8,22.8,0,0,0,4.53,1.6,50.84,50.84,0,0,0,6.14,1.2,28.29,28.29,0,0,0,6.67.85q1.22.09,2.4.24a56.43,56.43,0,0,0,13,0c1.76-.18,3.52-.33,5.29-.39,3.07-.09,6-1,9.07-1.2,1.23-.35,2.48-.68,3.7-1.08a10.55,10.55,0,0,0,1.74-.81,9,9,0,0,0,4.6-6.46A36.09,36.09,0,0,0,301.1,560.15Z"/><path class="cls-3" d="M904.08,500h51.21c1.29,0,2.58,0,3.87,0a36,36,0,0,1,11.38,1.85,29.91,29.91,0,0,1,19.62,18.58,33.85,33.85,0,0,1,2.28,11.79c0,1.45,0,2.9,0,4.35q0,25.13,0,50.24c0,1.77-.05,3.54-.14,5.31a3.41,3.41,0,0,1-2.84,2.9,14,14,0,0,1-1.44.13c-1.13,0-2.26,0-3.38,0l-26.57,0c-1.29,0-2.58,0-3.87-.06a7.13,7.13,0,0,1-2.77-.77,2.26,2.26,0,0,1-1-1,5.81,5.81,0,0,1-.73-2.28c-.08-1-.09-1.93-.1-2.9q0-6,0-12.08,0-23,0-45.89c0-1.94-.07-3.87-.15-5.8a8.3,8.3,0,0,0-.7-2.79,7.24,7.24,0,0,0-6.27-4.61,38.86,38.86,0,0,0-4.83-.19c-5.15,0-10.3,0-15.46,0l-28.5-.07a24.3,24.3,0,0,0-4.82.22,3.15,3.15,0,0,0-2,1.22,4.48,4.48,0,0,0-.67,1.26,5.63,5.63,0,0,0-.24,1.42c-.07,1.13-.13,2.25-.12,3.38,0,6.28.11,12.56.11,18.84q0,21.5,0,43c0,1.29,0,2.58,0,3.86a19.34,19.34,0,0,1-.33,2.39,2.78,2.78,0,0,1-2.13,2.35,11.25,11.25,0,0,1-1.88.4c-1,.07-1.93.06-2.9.06l-29.47.08c-.8,0-1.61,0-2.41-.08a3.92,3.92,0,0,1-2.18-1,3.73,3.73,0,0,1-1.4-2.45,14.15,14.15,0,0,1-.11-1.45c0-1.12,0-2.25,0-3.38q.06-39.37.12-78.75c0-1.61,0-3.22.08-4.83a4,4,0,0,1,.31-1.4,2.67,2.67,0,0,1,2.11-1.76,12.44,12.44,0,0,1,1.93-.14c1.61,0,3.22,0,4.83,0h51.69Z"/><path class="cls-3" d="M542.4,547.32v-40.1c0-1.29,0-2.58.09-3.86a3.68,3.68,0,0,1,.41-1.37,3.18,3.18,0,0,1,2.63-1.89c1.44-.12,2.89-.13,4.34-.13q20.05,0,40.11,0,17.14,0,34.3.05l3.38,0a19.27,19.27,0,0,1,4.79.52c1.55.41,3.21.37,4.69,1.09a30.08,30.08,0,0,1,16.32,12.18,33.58,33.58,0,0,1,5.59,14.26,36.08,36.08,0,0,1,.6,8.17,5.77,5.77,0,0,1-.67,2.3,2.74,2.74,0,0,1-2.25,1.6c-1,.06-1.93.12-2.89.13l-31.41,0c-1.12,0-2.25-.09-3.37-.18a2.71,2.71,0,0,1-2.22-2.23c-.09-1-.16-1.93-.16-2.89q0-4.35,0-8.7a10.87,10.87,0,0,0-1.07-4.67,7.92,7.92,0,0,0-6.3-4.69,22.34,22.34,0,0,0-3.37-.2q-8,0-16,0a12.27,12.27,0,0,0-1.91.21,3.3,3.3,0,0,0-2.52,2.61,11.8,11.8,0,0,0-.18,1.44c0,1.61,0,3.22,0,4.83q0,30.2,0,60.4c0,1.61,0,3.22,0,4.83a6.83,6.83,0,0,1-.18,1.43,2.78,2.78,0,0,1-1.36,1.91,5.18,5.18,0,0,1-1.8.64c-1.44.12-2.89.13-4.34.14l-28.51,0c-.8,0-1.61,0-2.41,0a5.29,5.29,0,0,1-2.29-.68,3.65,3.65,0,0,1-1.87-2.67,6.8,6.8,0,0,1-.14-1.43c0-1,0-1.94,0-2.9V547.32Z"/><path d="M918.3,230.13a22.61,22.61,0,0,1-3.78,13.79,26.35,26.35,0,0,1-12.9,10.49,20,20,0,0,1-11.84,1,25.74,25.74,0,0,1-5.93-2c-.71-.37-1.44-.71-2.16-1.06a1.31,1.31,0,0,0-1.6.68c-.2.43-.41.86-.6,1.31l-6.61,16.08q-3.46,8.49-6.93,17c-.37.89-.8,1.75-1.2,2.63a.87.87,0,0,1-1.25.16c-3-3.15-5.76-6.5-8.44-9.92a1.37,1.37,0,0,1-.2-1.37q1-2.46,2-4.9,6.27-14.66,12.54-29.3a9.53,9.53,0,0,0,.55-1.84,2.59,2.59,0,0,0-.15-.93,1,1,0,0,0-.2-.43c-2.95-3.62-5.92-7.22-9.07-10.67-.1-.12-.28-.17-.39-.28-.3-.27-.54-.22-.88,0a24,24,0,0,0-3,2.39q-10.53,8.88-21,17.78c-.73.62-1.5,1.21-2.25,1.82a1.21,1.21,0,0,1-1.34,0,3.37,3.37,0,0,1-.37-.29q-3.28-3.87-6.56-7.75c-.1-.12-.14-.29-.23-.42a1.33,1.33,0,0,1,.12-1.35c.95-.87,1.87-1.76,2.85-2.59q10.13-8.61,20.28-17.18,18.07-15.3,36.15-30.59a50,50,0,0,1,4.87-3.95,1.38,1.38,0,0,1,1.35.08c.45.46.93.88,1.35,1.37l19.36,22.86a39.07,39.07,0,0,1,3.43,4.66,29.81,29.81,0,0,1,3.65,8.9,9.93,9.93,0,0,1,.24,1.43C918.23,228.92,918.29,230,918.3,230.13Zm-12.66,0a11.88,11.88,0,0,0-.48-3.42,17.36,17.36,0,0,0-2.81-5.56c-.48-.64-1-1.27-1.5-1.88q-5.15-6.08-10.29-12.13a5.46,5.46,0,0,0-1-1,1.32,1.32,0,0,0-.89-.17,1.89,1.89,0,0,0-.84.44q-9,7.6-18,15.25a5.32,5.32,0,0,0-.59.74.72.72,0,0,0,0,.91,6.07,6.07,0,0,0,.5.81q5.58,6.64,11.2,13.26a25.45,25.45,0,0,0,2.36,2.4,14.86,14.86,0,0,0,6.79,3.48,9.32,9.32,0,0,0,4.3,0,15.1,15.1,0,0,0,9.53-6.84A11.19,11.19,0,0,0,905.64,230.08Z"/><path d="M898.35,838.74c-5.28-1.39-10.57-2.8-15.86-4.18-.93-.24-1.89-.4-2.84-.55a1.82,1.82,0,0,0-1.36.38,2.67,2.67,0,0,0-.36.31q-4.3,4.9-8.59,9.82c-.11.12-.19.25-.29.38a1.42,1.42,0,0,0,0,1.77c1.06,1,2.1,2,3.19,3l20.36,17.81a8.55,8.55,0,0,1,2,2,1.35,1.35,0,0,1,.09.91,2.18,2.18,0,0,1-.51.81q-3.16,3.65-6.35,7.28a4.77,4.77,0,0,1-.76.58.75.75,0,0,1-.89,0,13.11,13.11,0,0,1-2.27-1.78l-18.19-15.9Q846.15,844.19,826.52,827a25.92,25.92,0,0,1-3.86-3.62.92.92,0,0,1-.1-.91,3.11,3.11,0,0,1,.46-.84c1.25-1.47,2.52-2.93,3.79-4.39q7.79-8.91,15.59-17.81c1.07-1.21,2.15-2.4,3.27-3.55a29.46,29.46,0,0,1,6.07-4.76,24.9,24.9,0,0,1,7.6-3,26,26,0,0,1,4.32-.38,21.93,21.93,0,0,1,12,3,28,28,0,0,1,9.25,8.34,23,23,0,0,1,4,11.73,18.1,18.1,0,0,1-.18,3.37,62.46,62.46,0,0,1-1.67,7,1.48,1.48,0,0,0,.68,1.19c.16,0,.3.12.45.16,1.25.33,2.49.68,3.74,1q15.46,3.79,30.94,7.55c.93.23,1.89.39,2.82.64a11,11,0,0,1,1.31.6.48.48,0,0,1,.25.79,4.85,4.85,0,0,1-.48.83q-3.81,4.37-7.64,8.72a3.34,3.34,0,0,1-.74.61,1.57,1.57,0,0,1-.89.29c-1.26-.23-2.52-.5-3.76-.83-5.14-1.34-10.27-2.71-15.4-4.07Zm-21.67-24.82a11.12,11.12,0,0,0-2.33-7.15,15.17,15.17,0,0,0-8.07-5.78,10.72,10.72,0,0,0-6.17,0,15.77,15.77,0,0,0-6.61,3.82c-.47.44-.92.9-1.34,1.38l-11.72,13.44c-.11.12-.17.28-.27.4a1.28,1.28,0,0,0,0,1.35c.44.46.86.95,1.34,1.37q8,7,16,14c.36.32.74.61,1.12.91.12.1.27.18.4.27a1.26,1.26,0,0,0,1.33-.18c4.47-4.84,8.76-9.84,13-14.86a9.53,9.53,0,0,0,.83-1.17,18.55,18.55,0,0,0,.95-1.68A12.51,12.51,0,0,0,876.68,813.92Z"/><path d="M814.87,933a29.78,29.78,0,0,1-7.3-.84,25.21,25.21,0,0,1-8.31-3.76,32.49,32.49,0,0,1-5.46-4.75c-1.73-1.9-3.48-3.8-5.06-5.83q-6-7.6-11.76-15.33c-1.45-1.93-2.75-4-4.06-6a34.14,34.14,0,0,1-2.84-5.59,23.79,23.79,0,0,1-1.83-8.92,30,30,0,0,1,9-22.19,34.15,34.15,0,0,1,13.37-8.41,31.72,31.72,0,0,1,15.72-1,26.13,26.13,0,0,1,11.57,5.67,40.62,40.62,0,0,1,4.16,4c1.38,1.57,2.79,3.13,4.07,4.78q6.09,7.82,12.06,15.71a65,65,0,0,1,5,7.67,32.11,32.11,0,0,1,2.92,7.13,13.59,13.59,0,0,1,.34,1.4,29.28,29.28,0,0,1-.1,10.1,30.48,30.48,0,0,1-8.41,16,36.46,36.46,0,0,1-6.78,5.41A29.57,29.57,0,0,1,814.87,933Zm-16.12-70.71a15.22,15.22,0,0,0-5.76,1,18.32,18.32,0,0,0-10.44,9.45,16.05,16.05,0,0,0-1.59,6,15.32,15.32,0,0,0,1.5,7.48,38.66,38.66,0,0,0,2,3.81c1,1.65,2.09,3.25,3.2,4.82q5.46,7.66,11.46,14.91c1.33,1.61,2.73,3.16,4.18,4.67a32.68,32.68,0,0,0,3.2,2.91,14.4,14.4,0,0,0,8.88,3.27,16.58,16.58,0,0,0,5.26-.51,18.44,18.44,0,0,0,11.61-9.48,16,16,0,0,0,1.81-7.41,15.22,15.22,0,0,0-1.53-6.51,38.82,38.82,0,0,0-2-3.82c-1-1.64-2.07-3.26-3.19-4.82q-5.62-7.85-11.77-15.28c-1.34-1.6-2.77-3.13-4.21-4.64a24.28,24.28,0,0,0-2.48-2.28A14.79,14.79,0,0,0,798.75,862.25Z"/><path d="M171.65,324.39a32.31,32.31,0,0,1-2,10.39,35.48,35.48,0,0,1-5.32,9.71A30.49,30.49,0,0,1,151,354.41a31.2,31.2,0,0,1-8.46,1.87,14.06,14.06,0,0,1-2.9,0,34.92,34.92,0,0,1-8.9-2.07c-2.26-.88-4.48-1.82-6.64-2.89-6.5-3.22-12.9-6.61-19.23-10.12A56.18,56.18,0,0,1,98.29,337,47.21,47.21,0,0,1,94.57,334a24.56,24.56,0,0,1-6.37-9.56,31.43,31.43,0,0,1-2-10.87A29.43,29.43,0,0,1,88,303.12,35.47,35.47,0,0,1,93.57,293a30.49,30.49,0,0,1,17.65-11,23.65,23.65,0,0,1,10-.11,43,43,0,0,1,7.81,2.48c2.08.87,4.12,1.83,6.12,2.86,5.43,2.82,10.83,5.69,16.24,8.56a80.88,80.88,0,0,1,7,4.22,40.08,40.08,0,0,1,4.9,3.92,25.35,25.35,0,0,1,7.39,13.31A28.19,28.19,0,0,1,171.65,324.39Zm-12.26,1.19c-.08-1.13-.14-2.09-.22-3.05a4.41,4.41,0,0,0-.17-.95,15.85,15.85,0,0,0-4.17-7.48,22.64,22.64,0,0,0-3.34-2.77c-1.6-1.07-3.2-2.15-4.87-3.12-6.24-3.65-12.64-7-19.17-10.11a62.81,62.81,0,0,0-6.25-2.53,18.94,18.94,0,0,0-7.12-1,14.84,14.84,0,0,0-6.41,1.89,18.64,18.64,0,0,0-9.35,15.86,15.71,15.71,0,0,0,5.28,12,23.16,23.16,0,0,0,2.64,2.1c1.73,1.16,3.48,2.31,5.28,3.36,5.83,3.41,11.82,6.51,17.89,9.45,1.16.56,2.33,1.1,3.51,1.6a41.73,41.73,0,0,0,5,1.76,15.31,15.31,0,0,0,12.94-1.83A18.06,18.06,0,0,0,159.39,325.58Z"/><path d="M802.53,215.54a29.72,29.72,0,0,1-15.25-3.82,35.3,35.3,0,0,1-9.4-7.48,30.35,30.35,0,0,1-7.36-15.5,29.29,29.29,0,0,1-.11-8.67A23.3,23.3,0,0,1,771.8,175a34.54,34.54,0,0,1,2.78-5.62,65.75,65.75,0,0,1,4.06-6q6.55-8.67,13.47-17.06a67,67,0,0,1,5.25-5.67,32.34,32.34,0,0,1,4.9-3.91,23.21,23.21,0,0,1,8.91-3.53,40.54,40.54,0,0,1,4.79-.65,30.92,30.92,0,0,1,14,2.9,34.28,34.28,0,0,1,12.41,9.8,30.23,30.23,0,0,1,6.44,15.38,28.81,28.81,0,0,1-.26,8.65,23.39,23.39,0,0,1-1.64,5,34.29,34.29,0,0,1-3.24,5.92c-1.45,2.13-2.92,4.25-4.5,6.29q-5.18,6.67-10.46,13.27c-1.51,1.89-3.11,3.7-4.73,5.5a40.71,40.71,0,0,1-4.92,4.63,25.33,25.33,0,0,1-15.6,5.64C803,215.55,802.55,215.54,802.53,215.54Zm33.68-53.25a15.39,15.39,0,0,0-.83-5.2c-2.49-6.57-7.3-10.37-14-12a17.31,17.31,0,0,0-7.16.37,16.77,16.77,0,0,0-5.54,2.85,36.7,36.7,0,0,0-5.2,5c-5.31,6-10.27,12.36-15,18.89a48.59,48.59,0,0,0-3.35,5.29,23.79,23.79,0,0,0-1.67,4,14.3,14.3,0,0,0-.26,7.62,18.2,18.2,0,0,0,17.94,13.95h.48a14.34,14.34,0,0,0,7.68-2.49,24.67,24.67,0,0,0,3.37-2.73,70.08,70.08,0,0,0,5.24-5.66q5.73-6.84,11.05-14c1.25-1.67,2.42-3.4,3.55-5.16a41.08,41.08,0,0,0,2.12-3.78A14.09,14.09,0,0,0,836.21,162.29Z"/><path d="M88.31,756.7a31.17,31.17,0,0,1,2.25-12.12,24.86,24.86,0,0,1,5-7.66,37.61,37.61,0,0,1,5.11-4.41,75,75,0,0,1,7.33-4.67q8-4.47,16.06-8.88a71,71,0,0,1,6.51-3.16,35.42,35.42,0,0,1,5.46-1.93,27,27,0,0,1,9.56-.79,30.68,30.68,0,0,1,21.93,13.47A34,34,0,0,1,172.33,737a27.88,27.88,0,0,1,.8,12,39.48,39.48,0,0,1-1.39,6.11,24.27,24.27,0,0,1-5.42,9,37.33,37.33,0,0,1-5.49,4.7,77.18,77.18,0,0,1-6.94,4.39c-5.47,3.07-11,6.08-16.48,9.11a65.19,65.19,0,0,1-6.52,3.15c-1.18.5-2.38,1-3.6,1.38a26.48,26.48,0,0,1-13.81.93,27.24,27.24,0,0,1-4.17-1.2,30.2,30.2,0,0,1-13.24-9.38,36,36,0,0,1-6.69-12.74A32.28,32.28,0,0,1,88.31,756.7Zm56-30.75a13.92,13.92,0,0,0-5.17.8c-1.2.45-2.45.8-3.63,1.3q-2.43,1.05-4.8,2.25-8.82,4.47-17.28,9.59c-1.78,1.07-3.51,2.26-5.21,3.48a25.75,25.75,0,0,0-3,2.46,15.76,15.76,0,0,0-4.9,12.61,16.11,16.11,0,0,0,.62,3.31,17.77,17.77,0,0,0,8,11,15,15,0,0,0,12.48,1.91,46.94,46.94,0,0,0,4.55-1.57c1.34-.55,2.65-1.17,3.94-1.82,6.31-3.19,12.51-6.59,18.54-10.29,1.65-1,3.25-2.08,4.81-3.21a25,25,0,0,0,3-2.46,15.52,15.52,0,0,0,4.62-14.53,17.89,17.89,0,0,0-6.39-11A15.39,15.39,0,0,0,144.35,726Z"/><path d="M948.48,267.73c1.56-.77,2.24-.55,2.61.08.5.82,1,1.65,1.47,2.49l22.76,40.93c.47.84.91,1.71,1.35,2.56a1,1,0,0,1-.22,1.29,8.16,8.16,0,0,1-.77.58l-7.17,4a1.51,1.51,0,0,1-2.11-.44c-.66-1.1-1.31-2.21-1.94-3.34Q956.71,302,949,288c-.62-1.12-1.32-2.2-2-3.3a1.4,1.4,0,0,0-1.31-.37c-.43.21-.88.4-1.3.64l-17.29,9.62c-.56.32-1.08.7-1.61,1.06a1.33,1.33,0,0,0-.28,1.32c.76,1.42,1.51,2.84,2.29,4.25q6.35,11.38,12.67,22.78a10.06,10.06,0,0,1,1.25,2.6.85.85,0,0,1-.22.89,3.83,3.83,0,0,1-.7.64c-2.53,1.41-5.07,2.8-7.61,4.19a1.52,1.52,0,0,1-1.68-.59q-1.2-2.08-2.39-4.19-6.12-11-12.22-21.93c-.55-1-1.14-1.94-1.71-2.91a1.42,1.42,0,0,0-1.28-.46,7,7,0,0,0-.9.35Q903,308,893.29,313.43a2.05,2.05,0,0,0-.72.62,1.44,1.44,0,0,0-.26.87,2.11,2.11,0,0,0,.31.89q1.86,3.39,3.73,6.77,6.93,12.45,13.85,24.89c.47.84.88,1.72,1.31,2.58a1.39,1.39,0,0,1-.31,1.33c-.13.1-.21.25-.35.33-2.65,1.52-5.27,3.09-8,4.41a1.15,1.15,0,0,1-1.26-.32c-.28-.39-.58-.77-.82-1.18l-8.93-16-14.55-26.16a18.46,18.46,0,0,1-1.54-3,1.4,1.4,0,0,1,.41-1.29c.81-.52,1.6-1.07,2.44-1.53q11.38-6.36,22.78-12.69l44.3-24.62Z"/><path d="M940,741.8c0,.15,0,.33,0,.44-.51,1-1,2-1.57,3q-6.43,11.06-12.89,22.1c-.81,1.39-1.57,2.8-2.35,4.21a1.53,1.53,0,0,0,.53,1.7c.4.26.81.53,1.22.77l17.52,10.21a5,5,0,0,0,1.75.77.85.85,0,0,0,.89-.24,12.89,12.89,0,0,0,1.16-1.51c1.64-2.77,3.25-5.56,4.87-8.34q6.45-11,12.9-22.09c.48-.84,1-1.63,1.56-2.44a1.15,1.15,0,0,1,1.27-.4,80.48,80.48,0,0,1,8.34,4.8,1.11,1.11,0,0,1,.42,1.25c-.22.43-.37.9-.61,1.32-.47.84-1,1.66-1.47,2.49q-9,15.43-18,30.86c-1.79,3.06-3.56,6.12-5.36,9.17-.4.69-.87,1.34-1.31,2a1.42,1.42,0,0,1-1.31.37c-1-.53-2-1-3-1.62q-17.94-10.44-35.86-20.9L877,761.23a10.08,10.08,0,0,1-2.38-1.61.73.73,0,0,1-.18-.89,18.25,18.25,0,0,1,.8-1.74l8-13.76,15.58-26.69c.64-1.11,1.3-2.21,2-3.31a1.59,1.59,0,0,1,2.06-.68c2.66,1.49,5.35,2.94,7.89,4.66a1.19,1.19,0,0,1,.43,1.26c-.78,1.41-1.53,2.83-2.34,4.22q-8.13,14-16.28,27.94c-.49.83-.91,1.7-1.35,2.56a1.32,1.32,0,0,0,.42,1.29c.4.27.77.57,1.19.81q8.74,5.13,17.5,10.23a11.25,11.25,0,0,0,1.31.62.82.82,0,0,0,.87-.18,3.3,3.3,0,0,0,.65-.7c.76-1.24,1.48-2.49,2.21-3.75q6.71-11.46,13.4-22.92a23.83,23.83,0,0,1,1.35-2,.78.78,0,0,1,.87-.27,3.34,3.34,0,0,1,.91.29c2.5,1.45,5,2.92,7.47,4.41C939.64,741.19,939.77,741.55,940,741.8Z"/><path d="M482.43,105.08c-1.67.25-3.57.56-5.48.83-3,.43-6.05.84-9.07,1.28q-5.49.78-11,1.59c-1.43.21-2.86.41-4.28.68a1.31,1.31,0,0,0-1,1c-.56,2-.93,4.07-1.31,6.12-.42,2.21-.79,4.44-1.22,6.64-.22,1.11-.53,2.19-.79,3.29a1.32,1.32,0,0,1-1,1c-.77.22-1.57.35-2.36.5-3,.54-6.05.85-9.07,1.25a1.06,1.06,0,0,1-1-.83,3.91,3.91,0,0,1-.05-.48,11.42,11.42,0,0,1,.19-1.43q2.34-11.09,4.7-22.17c1.79-8.33,3.61-16.66,5.38-25s3.48-16.68,5.25-25c1-4.56,2-9.11,3-13.65a1.3,1.3,0,0,1,1-1,38.21,38.21,0,0,1,8.57-1.24,1.74,1.74,0,0,1,1.62.87c.71,1.26,1.42,2.52,2.11,3.79q4.13,7.65,8.22,15.3,15,27.84,29.93,55.67a27.37,27.37,0,0,1,1.95,3.86.92.92,0,0,1-.6,1.1,7.81,7.81,0,0,1-1.38.42c-3,.45-6.05.87-9.07,1.28a4.65,4.65,0,0,1-1.44-.07,1.39,1.39,0,0,1-.8-.46,12.32,12.32,0,0,1-1-1.63c-1.77-3.43-3.52-6.87-5.29-10.3-.44-.85-.9-1.7-1.38-2.54a1.41,1.41,0,0,0-1.2-.68C484,105,483.32,105.05,482.43,105.08Zm-27.27-7.52c1-.08,2.15-.12,3.26-.26,1.43-.19,2.85-.47,4.28-.68l9.54-1.3c1.91-.27,3.82-.57,5.72-.85,1.17-.17,1.73-1,1.29-2s-.8-1.76-1.24-2.61q-7-13.74-14-27.46c-.3-.57-.58-1.15-.9-1.7a3,3,0,0,0-.6-.72.48.48,0,0,0-.8.17,4.56,4.56,0,0,0-.55,1.31q-1.89,9.45-3.74,18.9-1.54,7.8-3.06,15.6a1.58,1.58,0,0,0,.05.94C454.49,97.13,454.82,97.28,455.16,97.56Z"/><path d="M487.11,984.8c2.86,13.19,5.59,25.76,8.3,38.33a38.25,38.25,0,0,1,.84,4.74.64.64,0,0,1-.51.7,2.53,2.53,0,0,1-.93.19c-1.12-.06-2.25-.13-3.36-.28-2.39-.32-4.78-.68-7.16-1.06a2,2,0,0,1-1.62-1.6c-.5-2.19-.94-4.4-1.37-6.61-.46-2.36-.86-4.74-1.32-7.11-.12-.63-.38-1.23-.54-1.85a1.31,1.31,0,0,0-1-1,28.59,28.59,0,0,0-3.31-.69c-3.18-.45-6.37-.85-9.56-1.28s-6.37-.87-9.56-1.32c-3-.43-6-.88-9.07-1.29a1.57,1.57,0,0,0-1.63.77c-.34.55-.67,1.11-1,1.68-1.61,3.15-3.2,6.31-4.81,9.46-.36.72-.7,1.45-1.09,2.15-1,1.73-1.12,2.22-3.4,1.8a45.47,45.47,0,0,0-4.78-.69,34.48,34.48,0,0,1-5.23-.91c-.74-.17-1-.68-.61-1.48s.69-1.45,1.07-2.16c1.43-2.69,2.88-5.39,4.32-8.08q17.39-32.57,34.79-65.12c.6-1.14,1.23-2.26,1.9-3.35a1.61,1.61,0,0,1,1.65-.75c2.24.29,4.47.58,6.7.9a8.65,8.65,0,0,1,1.4.34,1.64,1.64,0,0,1,1.06.91,14.23,14.23,0,0,1,.71,2.3c1.37,6.29,2.7,12.58,4.06,18.87q2.28,10.6,4.57,21.22C486.88,983.52,487,984.47,487.11,984.8Zm-10.16,12a1.6,1.6,0,0,0,.05-.48c-.67-3.64-1.33-7.28-2-10.91-.81-4.27-1.65-8.54-2.47-12.8-.77-4-1.52-7.91-2.3-11.85a2.54,2.54,0,0,0-.5-.8c-.26-.35-.55-.35-.81,0a9.24,9.24,0,0,0-.82,1.18q-7.89,15.23-15.74,30.46c-.22.43-.35.9-.54,1.34a.88.88,0,0,0,.61,1.09,13.88,13.88,0,0,0,1.86.51c2.55.33,5.1.71,7.65,1,4.47.6,8.93,1.24,13.39,1.87a1.9,1.9,0,0,0,.95-.06A2.59,2.59,0,0,0,477,996.77Z"/><path d="M662.12,140.86c-.8,0-1.61,0-2.41-.14a54.38,54.38,0,0,1-9-1.64,67.92,67.92,0,0,1-9.92-3.77,40.65,40.65,0,0,1-7-4.28,34.08,34.08,0,0,1-9.32-11c-.07-.14-.09-.31-.15-.45a1.35,1.35,0,0,1,.38-1.31,7.78,7.78,0,0,1,.79-.53c2.72-1.41,5.36-3,8.21-4.11A1.19,1.19,0,0,1,635,114c.2.26.41.5.59.77.37.53.71,1.07,1.08,1.6a25.79,25.79,0,0,0,9.79,8.42,40.77,40.77,0,0,0,9,3.34,22.35,22.35,0,0,0,9.11.47,11.35,11.35,0,0,0,8.86-6.69,14.6,14.6,0,0,0,1.33-6.08,10.18,10.18,0,0,0-4-8.41,19.63,19.63,0,0,0-2.82-1.86c-1.26-.71-2.57-1.33-3.88-2l-8.27-4a36.73,36.73,0,0,1-5.42-3.17,28.46,28.46,0,0,1-4.71-4.13,20,20,0,0,1-2.83-3.9,17.81,17.81,0,0,1-2.28-7.32,27.13,27.13,0,0,1,4.6-17.42,22.67,22.67,0,0,1,13.55-9.49,35.09,35.09,0,0,1,9.6-.63,48.24,48.24,0,0,1,14.82,4.12,33.57,33.57,0,0,1,15.14,13.06,5.21,5.21,0,0,1,.53,1.32.89.89,0,0,1-.27.88,1.52,1.52,0,0,1-.35.32c-2.69,1.47-5.37,2.94-8.18,4.15a1.39,1.39,0,0,1-1.34-.27c-.21-.25-.43-.48-.62-.73-.39-.52-.74-1.06-1.14-1.56A22.05,22.05,0,0,0,681.58,70a31.06,31.06,0,0,0-14-4.94,10.27,10.27,0,0,0-1.92,0c-.64.06-1.28.19-1.91.31a12,12,0,0,0-9.44,8.08,13,13,0,0,0-.86,3.26A9.76,9.76,0,0,0,655.59,84a16.81,16.81,0,0,0,4.7,4.11c1.11.66,2.24,1.28,3.39,1.85,2.6,1.29,5.22,2.52,7.81,3.82,1.59.8,3.15,1.63,4.67,2.53a36.69,36.69,0,0,1,3.6,2.44,20.84,20.84,0,0,1,5.17,5.7,20.21,20.21,0,0,1,2.94,13.42,30.59,30.59,0,0,1-2.38,8.83c-3.11,6.95-8.45,11.21-15.7,13.21A43,43,0,0,1,662.12,140.86Z"/><path d="M663.11,922.09a30.5,30.5,0,0,1,12.51,2.45c.44.18.86.44,1.29.66a1.37,1.37,0,0,1,.58,1.65c-.35.72-.67,1.46-1,2.16-1.07,2-2.17,4-3.27,5.92a1.58,1.58,0,0,1-1.7.54c-.91-.32-1.84-.59-2.74-.93a13.8,13.8,0,0,0-3.77-.76,28.21,28.21,0,0,0-7.23.19,29.17,29.17,0,0,0-9.16,2.91,16.27,16.27,0,0,0-4.54,3.55,13.07,13.07,0,0,0-3.07,7,7.72,7.72,0,0,0-.05,1,13.85,13.85,0,0,0,2.09,7.34,9.48,9.48,0,0,0,6.16,4.31c.78.18,1.58.29,2.38.42a13.11,13.11,0,0,0,4.33.05c2.54-.43,5.11-.6,7.65-1.08s5.09-.78,7.65-1a27.45,27.45,0,0,1,9.12.5,20.06,20.06,0,0,1,12.47,8.46,26.75,26.75,0,0,1,4,9.23,25.63,25.63,0,0,1,.82,4.76,22.77,22.77,0,0,1-4.33,14.53,29.28,29.28,0,0,1-7.25,7,41.7,41.7,0,0,1-10.81,5.28,62.63,62.63,0,0,1-13.19,2.81,31,31,0,0,1-7.7-.23,36.84,36.84,0,0,1-11-3.4,2.48,2.48,0,0,1-1.05-.95.94.94,0,0,1-.18-.44,1.22,1.22,0,0,1,.16-.45c1.52-2.83,3-5.68,4.57-8.5.46-.82,1-1,2.06-.55.44.19.9.35,1.35.52l.44.2a23.58,23.58,0,0,0,8.46,1.73,37.14,37.14,0,0,0,16.38-3.49,20.13,20.13,0,0,0,4.12-2.5,15.67,15.67,0,0,0,2.73-2.73,10.71,10.71,0,0,0,2.35-6.71,13.86,13.86,0,0,0-3.36-9.34,10,10,0,0,0-7.2-3.47,25.46,25.46,0,0,0-5.78.3c-2.85.47-5.7,1-8.57,1.41-2.23.32-4.47.6-6.72.71a28.06,28.06,0,0,1-10-1.26,19,19,0,0,1-10.46-8.11,26.35,26.35,0,0,1-3.38-8,27.86,27.86,0,0,1-.93-5.22,23,23,0,0,1,6.14-17.26,29,29,0,0,1,6.36-5.15,41.45,41.45,0,0,1,10.66-4.43A38,38,0,0,1,663.11,922.09Z"/><path d="M364.64,130.39c-.09-1.25-.17-2-.2-2.85a1.63,1.63,0,0,1,.84-1.62c3.15-1.63,6.35-3.13,9.64-4.44.53-.21,1.5.21,1.59.7a53.61,53.61,0,0,1,1,5.71c.7,10.36-2.81,19-11,25.53a35.16,35.16,0,0,1-13.82,6.66,27.84,27.84,0,0,1-6.23.73,30.78,30.78,0,0,1-14-3,25.29,25.29,0,0,1-8.65-6.84,37.85,37.85,0,0,1-3.8-5.58c-1-1.83-2-3.66-2.95-5.55-2.87-5.94-5.65-11.93-8.29-18a80.83,80.83,0,0,1-2.92-7.68,33.42,33.42,0,0,1-1.31-5.64,25.17,25.17,0,0,1,1.32-12.36A31,31,0,0,1,319.4,79.8a35.27,35.27,0,0,1,10.74-4.24,31.1,31.1,0,0,1,8.18-.58,26.9,26.9,0,0,1,14.37,5.1,31.93,31.93,0,0,1,8.13,8.18,1,1,0,0,1-.45,1.57c-3.31,1.67-6.67,3.23-10.09,4.63a1.25,1.25,0,0,1-.92-.17,10.31,10.31,0,0,1-2.11-2,20.83,20.83,0,0,0-5.09-3.64A15.94,15.94,0,0,0,333.74,87a17.26,17.26,0,0,0-4.23,1A18.38,18.38,0,0,0,320.87,94a15,15,0,0,0-3.42,10.32,22.22,22.22,0,0,0,.95,5.7,76.58,76.58,0,0,0,2.66,7.25q3.46,8.24,7.48,16.23a70,70,0,0,0,3.54,6.33,28,28,0,0,0,3.21,4.22,16,16,0,0,0,15.08,4.44,20.74,20.74,0,0,0,6.24-2.53,16.37,16.37,0,0,0,7.15-8.82,20,20,0,0,0,.9-6.19A3.2,3.2,0,0,0,364.64,130.39Z"/><path d="M379.93,933.94c-.09,1.23-.22,3.16-.38,5.08a8.71,8.71,0,0,1-.76,2.78,1.14,1.14,0,0,1-1.2.54c-3.28-1.34-6.51-2.78-9.67-4.37a1.67,1.67,0,0,1-1-1.52c0-.48,0-1,0-1.45,0-1,.1-1.93.06-2.9-.26-6.26-3-11.09-8.41-14.31a20.43,20.43,0,0,0-4.42-1.93,17.88,17.88,0,0,0-5.25-.65,15,15,0,0,0-11.88,5.48,27.38,27.38,0,0,0-2.56,3.51c-1.09,1.78-2.13,3.61-3.06,5.48-3,6.06-5.81,12.21-8.32,18.5-.65,1.64-1.16,3.34-1.78,5a34.33,34.33,0,0,0-1.28,5.64,7.79,7.79,0,0,0-.07,1.93,16.23,16.23,0,0,0,3.81,9.72,18.61,18.61,0,0,0,10.67,6.17c.63.12,1.26.29,1.89.35a13,13,0,0,0,2.41.07,17.34,17.34,0,0,0,10.07-4.23c.73-.63,1.4-1.33,2.1-2,.35-.33.7-.67,1.07-1a1.76,1.76,0,0,1,1.38-.23,1.48,1.48,0,0,1,.47.12L363.1,974a1.19,1.19,0,0,1,.58,1.58,31.94,31.94,0,0,1-8,8.28,29,29,0,0,1-11.45,4.92,21.06,21.06,0,0,1-2.39.28,32.62,32.62,0,0,1-18.61-4.08,30.77,30.77,0,0,1-14.45-16.26,25.67,25.67,0,0,1-1.79-8.95,30.3,30.3,0,0,1,1.7-10.43c.78-2.28,1.58-4.57,2.53-6.78,2.67-6.22,5.41-12.4,8.36-18.48.92-1.89,1.92-3.73,2.92-5.56a36,36,0,0,1,3.19-4.83,24.93,24.93,0,0,1,10.62-8.12,31.09,31.09,0,0,1,13.19-2.43,32.52,32.52,0,0,1,9.89,2.08,35.79,35.79,0,0,1,8.9,4.8,28.22,28.22,0,0,1,11.1,17A37.55,37.55,0,0,1,379.93,933.94Z"/><path d="M196.22,231.71a2.31,2.31,0,0,1-.11.47,13.54,13.54,0,0,1-2,2.73q-8.43,10.56-16.89,21.11c-.7.88-1.38,1.78-2.06,2.68a1.14,1.14,0,0,0,0,1.32,21.74,21.74,0,0,0,2.92,2.51q10.56,8.46,21.11,16.9A15.53,15.53,0,0,1,202.1,282a1,1,0,0,1,.18.88,1.53,1.53,0,0,1-.22.42q-3.15,4-6.31,7.94a3.72,3.72,0,0,1-.76.58.75.75,0,0,1-.9.07,17,17,0,0,1-1.6-1.06l-18.1-14.47-43.34-34.7c-.75-.61-1.49-1.23-2.23-1.85-1-.84-1.13-1.54-.44-2.43.5-.64,1-1.26,1.51-1.89q14.63-18.28,29.27-36.56a11.62,11.62,0,0,1,2.25-2.5,1,1,0,0,1,.91-.13,2.08,2.08,0,0,1,.43.19l7.18,5.71a1.31,1.31,0,0,1,.22,1.71c-.49.64-1,1.29-1.46,1.92q-7.38,9.24-14.78,18.48-4.22,5.28-8.39,10.58a1.25,1.25,0,0,0,0,1.34c.11.11.17.28.28.38.49.43,1,.85,1.48,1.25l15.82,12.68a4.63,4.63,0,0,0,1.64,1,1,1,0,0,0,.91-.17A14.44,14.44,0,0,0,167,250c2.23-2.75,4.44-5.52,6.65-8.28q6-7.55,12.07-15.08c.4-.5.84-1,1.27-1.44a1.06,1.06,0,0,1,1.28-.26,36.11,36.11,0,0,1,3.84,2.9c1.26,1,2.49,2,3.7,3.09C196,231.07,196.09,231.43,196.22,231.71Z"/><path d="M166.36,817.19a12.79,12.79,0,0,0-1.19.78l-9.68,8c-4.58,3.8-9.15,7.62-13.74,11.41-.75.61-1.54,1.17-2.31,1.74a1.34,1.34,0,0,1-1.36,0c-.11-.12-.27-.19-.37-.31-2.32-2.66-4.66-5.32-6.74-8.19a1,1,0,0,1,.18-1.28c.47-.44.92-.9,1.41-1.31l60.93-50.58c.74-.62,1.51-1.2,2.27-1.8a1.32,1.32,0,0,1,1.72.28c1,1.09,1.9,2.19,2.83,3.3q8,9.65,16,19.31,6.48,7.8,13,15.61c.62.74,1.19,1.52,1.77,2.29a1,1,0,0,1,0,1.31c-.35.33-.66.71-1,1l-4.82,4c-2.37,2-2.41,2-4.52-.57q-4.49-5.37-9-10.76-6.78-8.17-13.58-16.34c-.51-.62-1.06-1.2-1.61-1.79a1.14,1.14,0,0,0-1.32-.16c-.26.19-.55.34-.8.54l-16.72,13.88c-.37.31-.68.68-1,1a1.25,1.25,0,0,0-.17,1.34c.57.77,1.12,1.57,1.73,2.31,5.44,6.57,10.91,13.12,16.34,19.69a41.16,41.16,0,0,1,3.29,4.16,1.29,1.29,0,0,1-.17,1.33,89.06,89.06,0,0,1-7.41,6.17,1.11,1.11,0,0,1-1.31-.16c-.85-1-1.73-1.91-2.55-2.9q-8-9.65-16-19.32c-1-1.23-2.1-2.43-3.18-3.61C167.05,817.36,166.68,817.32,166.36,817.19Z"/><path d="M255.6,176.26a3.17,3.17,0,0,1-.19.42,9.62,9.62,0,0,1-2,2l-17.89,15.52c-1.82,1.58-3.62,3.2-5.42,4.81a1.44,1.44,0,0,0-.1,1.77c.5.63,1,1.27,1.51,1.88q3.78,4.38,7.6,8.76,5.85,6.75,11.71,13.51a19.16,19.16,0,0,1,1.42,1.93.82.82,0,0,1,0,.91,1.36,1.36,0,0,1-.27.39q-3.81,3.35-7.64,6.68a4.46,4.46,0,0,1-.83.47.66.66,0,0,1-.88-.11c-.56-.58-1.16-1.12-1.68-1.72q-13-15-26-29.93-12.51-14.42-25-28.83a16.9,16.9,0,0,1-2.66-3.42,1,1,0,0,1,.07-.9,7.83,7.83,0,0,1,1.28-1.42q5.28-4.62,10.57-9.2,13.14-11.4,26.29-22.79c.61-.53,1.25-1,1.88-1.51a1.21,1.21,0,0,1,1.35,0c.67.69,1.37,1.35,2,2.08,1.48,1.7,2.92,3.43,4.37,5.16a1,1,0,0,1,0,1.29c-.93.88-1.85,1.79-2.82,2.63q-12.4,10.78-24.82,21.54c-.84.74-1.64,1.53-2.44,2.32a1.25,1.25,0,0,0-.06,1.36c.41.48.77,1,1.19,1.51q6.8,7.86,13.62,15.69a14,14,0,0,0,1.05,1,1.41,1.41,0,0,0,1.35,0c1.12-.92,2.25-1.82,3.35-2.77q10.23-8.87,20.45-17.73a15.05,15.05,0,0,1,1.93-1.43c.22-.14.61,0,.91,0a.72.72,0,0,1,.42.24q3,3.45,6,6.92A4.07,4.07,0,0,1,255.6,176.26Z"/><path d="M286.88,865.51a2.22,2.22,0,0,1,0,.45,1.09,1.09,0,0,1-.19.44q-3,3.51-5.92,7a1.34,1.34,0,0,1-1.74.2c-.51-.39-1-.78-1.51-1.19l-7.39-6.22-19.56-16.5c-.61-.52-1.26-1-1.89-1.49a1.19,1.19,0,0,0-1.34,0c-.34.34-.72.64-1,1q-7,8.3-14,16.61a6.88,6.88,0,0,0-.75,1.22.72.72,0,0,0,.1.89c.56.57,1.13,1.14,1.74,1.66q8.83,7.49,17.7,15c2,1.66,3.93,3.32,5.88,5,.95.82,1,1.39.1,2.45-1,1.25-2,2.49-3.09,3.71-.84,1-1.7,1.93-2.56,2.89a1.26,1.26,0,0,1-1.73.08c-.63-.51-1.27-1-1.88-1.51l-19.93-16.81c-1.23-1-2.48-2-3.73-3.06a1.29,1.29,0,0,0-1.72.27c-1,1.09-1.91,2.18-2.84,3.28q-8.88,10.51-17.75,21a15.16,15.16,0,0,1-1.69,1.71,1.06,1.06,0,0,1-.89.09,4.5,4.5,0,0,1-1.2-.78q-3.34-2.79-6.65-5.6c-1.58-1.36-1.36-1.7-.15-3.16,3.29-4,6.63-7.88,10-11.82l42-49.81c.41-.5.84-1,1.27-1.45a1.44,1.44,0,0,1,1.75-.27c1,.8,2,1.59,3,2.42q17.71,14.94,35.42,29.89a10.11,10.11,0,0,1,2.09,2A2.16,2.16,0,0,1,286.88,865.51Z"/><path d="M713.57,162.05a4.36,4.36,0,0,1,.33-.74q3.33-6.44,6.68-12.86,12.2-23.34,24.38-46.68a18.94,18.94,0,0,0,1.84-3.92.8.8,0,0,0-.33-.85,24,24,0,0,0-2-1.28c-4.27-2.25-8.56-4.47-12.84-6.71-1.14-.6-2.27-1.22-3.42-1.8s-1.65-1.44-1-2.69c1.2-2.28,2.38-4.57,3.58-6.85.15-.28.36-.52.54-.79a1.27,1.27,0,0,1,1.27-.47c1,.48,2,.94,3,1.45l45.83,23.91c1,.52,2,1.1,2.94,1.66a1.52,1.52,0,0,1,.44,1.3c-.06.15-.08.32-.15.46-1.36,2.74-2.68,5.49-4.3,8.09a1.17,1.17,0,0,1-1.27.44c-.29-.13-.59-.24-.88-.39-1.15-.58-2.3-1.16-3.44-1.76l-13.7-7.16a11.47,11.47,0,0,0-1.81-.65c-.1,0-.28.15-.4.26a4.81,4.81,0,0,0-1.12,1.55q-3.9,7.5-7.83,15L726.67,165.1c-.6,1.14-1.26,2.25-1.9,3.37a1.36,1.36,0,0,1-1.32.32L714,163.87A1.72,1.72,0,0,1,713.57,162.05Z"/><path d="M761.86,970.81a2.58,2.58,0,0,1-.15.55c-.17.27-.33.61-.58.74-3.15,1.63-6.31,3.22-9.47,4.82a1.17,1.17,0,0,1-1.29-.36c-.77-1.41-1.57-2.8-2.3-4.23q-10.67-20.85-21.3-41.7-4.07-7.95-8.13-15.9c-.44-.86-.94-1.68-1.42-2.52a1.28,1.28,0,0,0-1.27-.49c-.73.31-1.48.59-2.2.95l-15.48,7.88c-.57.29-1.17.52-1.76.77a1.68,1.68,0,0,1-1.29-.49c-1.54-2.64-2.93-5.36-4.2-8.13a1.54,1.54,0,0,1,.43-1.74c.55-.33,1.09-.67,1.66-1l48.58-24.79.86-.44a1.66,1.66,0,0,1,2.46.65c1.32,2.58,2.62,5.16,3.93,7.75a1.57,1.57,0,0,1-.5,1.71c-.85.46-1.69.92-2.55,1.36q-7.51,3.85-15,7.71a11.37,11.37,0,0,0-1.6,1.06.74.74,0,0,0-.26.86,27.85,27.85,0,0,0,2,4.35q12.06,23.65,24.14,47.3c2,3.87,4,7.73,5.94,11.6C761.42,969.69,761.64,970.3,761.86,970.81Z"/><path d="M525.66,985.72c-.17-3.05-.35-6.1-.5-9.16s-.3-6.43-.41-9.65c-.15-4.66-.3-9.33-.62-14-.18-2.72-.17-5.46-.24-8.2a1.53,1.53,0,0,1,1.15-1.34,65.78,65.78,0,0,1,10.59-.55,1.67,1.67,0,0,1,1.06.86,6.44,6.44,0,0,1,.23.94c.07.8.13,1.6.16,2.41.08,2.25.13,4.5.22,6.75.17,4,.38,8,.56,12.06.14,3.38.25,6.76.4,10.13.18,4.18.39,8.36.57,12.54.16,3.7.32,7.4.42,11.1.13,5.31.48,10.61.83,15.91a1.53,1.53,0,0,0,1.57,1.47c.48,0,1,0,1.45,0,3.21-.12,6.43-.18,9.65-.39,4.33-.28,8.68-.44,13-.58,4-.13,8-.37,12.06-.54.8,0,1.6,0,2.4,0a1.54,1.54,0,0,1,1.3,1.22,71.72,71.72,0,0,1,.27,9.15,1.55,1.55,0,0,1-.88,1.05,10,10,0,0,1-1.4.31c-2.25.14-4.5.27-6.75.34-5.79.17-11.59.33-17.37.74-2.73.2-5.47.24-8.2.31-4.35.12-8.69.27-13,.59-1.76.12-3.53.11-5.3.15a1.44,1.44,0,0,1-1.29-1.2c0-.32-.12-.63-.14-1-.31-5.14-.66-10.28-.77-15.43q-.17-7-.61-14c-.25-4-.33-8-.49-12.06Z"/><path d="M525.36,76.27c.09-2.47.21-5.53.3-8.59.14-4.67.33-9.33.61-14,.25-4.18.32-8.37.47-12.56.07-1.77.13-3.54.24-5.31a10,10,0,0,1,.3-1.4,1.9,1.9,0,0,1,1.06-.91c.16,0,.32-.06.47-.06,3.38.06,6.76.1,10.13.43a1.45,1.45,0,0,1,1.11,1.37c0,.48.06,1,.05,1.45-.08,2.25-.11,4.51-.27,6.76-.37,5-.49,10-.67,15-.13,3.7-.35,7.4-.51,11.11-.14,3.21-.28,6.44-.38,9.66Q538,86,537.68,92.71c-.26,4.5-.33,9-.47,13.52,0,1.26.51,1.93,1.57,2,6.76.33,13.51.88,20.28,1,6,.07,11.91.58,17.86.88a1.88,1.88,0,0,1,.9.29,1.25,1.25,0,0,1,.56.74,57.36,57.36,0,0,1-.51,9.62,1.45,1.45,0,0,1-1,.88c-.65,0-1.29.09-1.93.07-2.74-.1-5.48-.17-8.21-.35q-6-.4-12.07-.54c-4.52-.11-9-.33-13.53-.59-4.34-.25-8.69-.32-13-.49-1.12,0-2.24-.18-3.36-.27a1.83,1.83,0,0,1-.92-1,11.8,11.8,0,0,1-.16-1.43c.14-5.32.25-10.63.59-15.94.22-3.54.34-7.09.46-10.63C524.85,85.87,524.93,81.36,525.36,76.27Z"/><path d="M394.62,52.55a2.22,2.22,0,0,1,.42.25,3.36,3.36,0,0,1,.93,1.65q2.5,8.56,5,17.13,8.46,28.69,16.94,57.38c.45,1.54.88,3.09,1.3,4.64a1.39,1.39,0,0,1-.78,1.58l-.46.17c-3.08.92-6.16,1.84-9.24,2.74a1.91,1.91,0,0,1-.95,0c-.29-.08-.69-.24-.79-.47a31.43,31.43,0,0,1-1.14-3.17Q400,114.31,394,94.17q-5-16.89-10-33.77c-.32-1.08-.58-2.18-.87-3.27a1.53,1.53,0,0,1,.8-1.57c.15-.06.29-.15.44-.2l9.26-2.69A5.77,5.77,0,0,1,394.62,52.55Z"/><path d="M313.84,882.23a3.7,3.7,0,0,1-.08.48,10.67,10.67,0,0,1-1.4,2.51q-5.55,8.78-11.12,17.54Q286.1,926.61,271,950.46c-.6.95-1.21,1.9-1.83,2.84a1.64,1.64,0,0,1-2.45.66q-2.46-1.51-4.91-3.07c-1.21-.78-2.41-1.6-3.6-2.42a1.25,1.25,0,0,1-.3-1.7c.32-.56.62-1.13,1-1.67l42.7-67.27c.35-.54.71-1.07,1.07-1.61a1.53,1.53,0,0,1,1.71-.45c3,1.82,6.06,3.65,8.94,5.7A3.4,3.4,0,0,1,313.84,882.23Z"/><path d="M311.3,182.28c-.2.37-.28.75-.52.91-2.95,1.95-5.92,3.87-8.9,5.8a1.21,1.21,0,0,1-1.67-.41c-.63-.93-1.28-1.85-1.9-2.79l-19.78-30.36-22.14-34c-.7-1.08-1.34-2.2-2-3.3a1.15,1.15,0,0,1,.42-1.27q4.33-3.06,8.89-5.79a1.61,1.61,0,0,1,1.75.38c.73,1.06,1.46,2.12,2.16,3.2q16,24.49,31.9,49,5.67,8.7,11.34,17.41A5.67,5.67,0,0,1,311.3,182.28Z"/><path d="M396.92,1010.71a1.25,1.25,0,0,1-.93,0c-2.47-.72-4.94-1.42-7.42-2.13l-2.3-.68a1.76,1.76,0,0,1-.87-1.59c.13-.63.21-1.27.39-1.89l17.53-60.7q2.22-7.65,4.43-15.29c.22-.77.5-1.53.77-2.29a1.57,1.57,0,0,1,1.93-1,4,4,0,0,1,.48.08c2.78.8,5.55,1.61,8.33,2.43a4.83,4.83,0,0,1,1.31.59,1.4,1.4,0,0,1,.44.79,2.75,2.75,0,0,1-.23,1.41l-8.85,30.58q-6.42,22.25-12.83,44.49c-.45,1.54-.93,3.08-1.45,4.59C397.57,1010.38,397.17,1010.52,396.92,1010.71Z"/><path class="cls-3" d="M1010.41,499.66H1009c-5.78,0-13.05-4-15.89-11.44a18,18,0,0,1-1-9,17.07,17.07,0,0,1,2.72-7.15,18.64,18.64,0,0,1,10.76-7.67,8.51,8.51,0,0,1,1.43-.22,43,43,0,0,1,4.82-.15c6,.05,12.62,4.17,15.38,10.7a13.54,13.54,0,0,1,1.22,5.13c0,1.12,0,2.25,0,3.37a17.45,17.45,0,0,1-10.93,15.22A16,16,0,0,1,1010.41,499.66Zm14.28-17.14a17,17,0,0,0-3-9.95,14.11,14.11,0,0,0-11.6-5.78,13.16,13.16,0,0,0-7.28,2.17c-4.74,3-6.79,7.49-7,13a17.23,17.23,0,0,0,1.75,6.94,13.7,13.7,0,0,0,10.07,7.4c.48.08.95.18,1.42.27a7.38,7.38,0,0,0,2.39,0c.64-.09,1.26-.24,1.9-.33a12,12,0,0,0,6-2.82A14.58,14.58,0,0,0,1024.69,482.52Z"/><path class="cls-3" d="M1003.55,482.25c0-1.92,0-3.85,0-5.77,0-.64.08-1.27.13-1.91a1.82,1.82,0,0,1,1.2-1.36,7.76,7.76,0,0,1,1.41-.26c1.92,0,3.84,0,5.77-.05a7.59,7.59,0,0,1,3.66,1,3.58,3.58,0,0,1,1.89,2.64,7.58,7.58,0,0,1,.08,1.43,3,3,0,0,1-.87,2.17c-.45.44-.94.86-1.41,1.29a1.14,1.14,0,0,0-.15,1.3q.27.4.57.78a7.88,7.88,0,0,1,1.76,3.88c.13.79.25,1.58.37,2.37a.9.9,0,0,1-.82,1,3.06,3.06,0,0,1-1.87-.14,1.38,1.38,0,0,1-.7-.62c-.5-1.34-.91-2.72-1.4-4.08a3,3,0,0,0-2.46-2,7.69,7.69,0,0,0-1.43-.2c-1.28,0-2.17.47-2.24,1.91s-.13,2.88-.26,4.31a1.05,1.05,0,0,1-.57.69,2.34,2.34,0,0,1-1.87,0,1,1,0,0,1-.59-.68,8.64,8.64,0,0,1-.19-1.42c0-2.08,0-4.17,0-6.25Zm3.6-4.62c0,1,0,1.32,0,1.64,0,.16.06.31.08.47a2,2,0,0,0,1.61,1.52,5.85,5.85,0,0,0,4.06-1,2.52,2.52,0,0,0,.85-3,3.11,3.11,0,0,0-2.12-1.76,6.55,6.55,0,0,0-3.29,0,1.39,1.39,0,0,0-1,.93A5.13,5.13,0,0,0,1007.15,477.63Z"/></g></g></svg>